<svg width="52" height="52" viewBox="0 0 52 52" fill="none" xmlns="http://www.w3.org/2000/svg">
<path d="M3.98334 13.2887L26 0.57735L48.0167 13.2887V38.7113L26 51.4226L3.98334 38.7113V13.2887Z" fill="#888888" fill-opacity="0.1" stroke="#888888"/>
<path d="M8.80597 31V24.609C8.80597 24.3303 8.87564 24.0773 9.01497 23.85C9.1543 23.6153 9.33764 23.4283 9.56497 23.289C9.79964 23.1497 10.0563 23.08 10.335 23.08H15.186C15.4646 23.08 15.7213 23.1497 15.956 23.289C16.1906 23.4283 16.3776 23.6153 16.517 23.85C16.6563 24.0773 16.726 24.3303 16.726 24.609V31H15.263V28.338H10.258V31H8.80597ZM10.258 26.886H15.263V24.675C15.263 24.6383 15.2483 24.609 15.219 24.587C15.1896 24.5577 15.1566 24.543 15.12 24.543H10.39C10.3533 24.543 10.3203 24.5577 10.291 24.587C10.269 24.609 10.258 24.6383 10.258 24.675V26.886ZM18.0013 31V24.609C18.0013 24.3303 18.0709 24.0773 18.2103 23.85C18.3496 23.6153 18.5329 23.4283 18.7603 23.289C18.9949 23.1497 19.2516 23.08 19.5303 23.08H24.3813C24.6599 23.08 24.9166 23.1497 25.1513 23.289C25.3859 23.4283 25.5729 23.6153 25.7123 23.85C25.8516 24.0773 25.9213 24.3303 25.9213 24.609V31H24.4583V28.338H19.4533V31H18.0013ZM19.4533 26.886H24.4583V24.675C24.4583 24.6383 24.4436 24.609 24.4143 24.587C24.3849 24.5577 24.3519 24.543 24.3153 24.543H19.5853C19.5486 24.543 19.5156 24.5577 19.4863 24.587C19.4643 24.609 19.4533 24.6383 19.4533 24.675V26.886ZM27.1746 31V23.091H33.5546C33.8333 23.091 34.0899 23.1607 34.3246 23.3C34.5593 23.4393 34.7463 23.6263 34.8856 23.861C35.0249 24.0883 35.0946 24.3413 35.0946 24.62V26.754C35.0946 27.0327 35.0249 27.2893 34.8856 27.524C34.7463 27.7587 34.5593 27.9457 34.3246 28.085C34.0899 28.217 33.8333 28.283 33.5546 28.283L28.6266 28.294V31H27.1746ZM28.7586 26.82H33.4886C33.5253 26.82 33.5583 26.809 33.5876 26.787C33.6169 26.765 33.6316 26.7357 33.6316 26.699V24.675C33.6316 24.6383 33.6169 24.609 33.5876 24.587C33.5583 24.5577 33.5253 24.543 33.4886 24.543H28.7586C28.7219 24.543 28.6889 24.5577 28.6596 24.587C28.6376 24.609 28.6266 24.6383 28.6266 24.675V26.699C28.6266 26.7357 28.6376 26.765 28.6596 26.787C28.6889 26.809 28.7219 26.82 28.7586 26.82ZM35.8868 31V23.069H37.3388V29.537H43.8068V31H35.8868Z" fill="#FCFCFD"/>
</svg>
