<svg width="52" height="52" viewBox="0 0 52 52" fill="none" xmlns="http://www.w3.org/2000/svg">
<path d="M3.98334 13.2887L26 0.57735L48.0167 13.2887V38.7113L26 51.4226L3.98334 38.7113V13.2887Z" fill="#BB4057" fill-opacity="0.1" stroke="#BB4057"/>
<path d="M14.6152 31C14.3365 31 14.0799 30.9303 13.8452 30.791C13.6179 30.6517 13.4345 30.4683 13.2952 30.241C13.1559 30.0063 13.0862 29.7497 13.0862 29.471V24.609C13.0862 24.3303 13.1559 24.0773 13.2952 23.85C13.4345 23.6153 13.6179 23.4283 13.8452 23.289C14.0799 23.1497 14.3365 23.08 14.6152 23.08H20.9842V24.543H14.9232C14.8059 24.543 14.7105 24.576 14.6372 24.642C14.5712 24.708 14.5382 24.8033 14.5382 24.928V29.152C14.5382 29.2693 14.5712 29.3647 14.6372 29.438C14.7105 29.504 14.8059 29.537 14.9232 29.537H20.9842V31H14.6152ZM22.1311 31V23.08H23.7261L28.5881 28.866V23.08H30.0511V31H28.4561L23.5831 25.203V31H22.1311ZM34.3635 31V28.03L30.7115 23.08H32.4275L35.1005 26.435L37.7405 23.08H39.4895L35.8265 28.041V31H34.3635Z" fill="#FCFCFD"/>
</svg>
