<svg width="52" height="52" viewBox="0 0 52 52" fill="none" xmlns="http://www.w3.org/2000/svg">
<path d="M3.98334 13.2887L26 0.57735L48.0167 13.2887V38.7113L26 51.4226L3.98334 38.7113V13.2887Z" fill="#8E7BD8" fill-opacity="0.1" stroke="#8E7BD8"/>
<path d="M13.8338 31V23.08H21.1268V24.543H15.2968V26.303H19.9828V27.777H15.2968V29.537H21.1268V31H13.8338ZM23.7407 31C23.462 31 23.2053 30.9303 22.9707 30.791C22.7433 30.6517 22.56 30.4683 22.4207 30.241C22.2813 30.0063 22.2117 29.7497 22.2117 29.471V23.08H23.6637V29.405C23.6637 29.4417 23.6747 29.4747 23.6967 29.504C23.726 29.526 23.759 29.537 23.7957 29.537H28.5257C28.5623 29.537 28.5953 29.526 28.6247 29.504C28.654 29.4747 28.6687 29.4417 28.6687 29.405V23.08H30.1317V29.471C30.1317 29.7497 30.062 30.0063 29.9227 30.241C29.7833 30.4683 29.5963 30.6517 29.3617 30.791C29.1343 30.9303 28.8813 31 28.6027 31H23.7407ZM37.6571 31L35.2701 28.151H37.1731L39.2411 30.593V31H37.6571ZM31.3431 31V23.091H37.7231C38.0017 23.091 38.2584 23.1607 38.4931 23.3C38.7277 23.4393 38.9147 23.6263 39.0541 23.861C39.1934 24.0883 39.2631 24.3413 39.2631 24.62V26.754C39.2631 27.0327 39.1934 27.2893 39.0541 27.524C38.9147 27.7587 38.7277 27.9457 38.4931 28.085C38.2584 28.217 38.0017 28.283 37.7231 28.283L32.7951 28.294V31H31.3431ZM32.9271 26.82H37.6571C37.6937 26.82 37.7267 26.809 37.7561 26.787C37.7854 26.765 37.8001 26.7357 37.8001 26.699V24.675C37.8001 24.6383 37.7854 24.609 37.7561 24.587C37.7267 24.5577 37.6937 24.543 37.6571 24.543H32.9271C32.8904 24.543 32.8574 24.5577 32.8281 24.587C32.8061 24.609 32.7951 24.6383 32.7951 24.675V26.699C32.7951 26.7357 32.8061 26.765 32.8281 26.787C32.8574 26.809 32.8904 26.82 32.9271 26.82Z" fill="#FCFCFD"/>
</svg>
