<svg width="40" height="40" viewBox="0 0 40 40" fill="none" xmlns="http://www.w3.org/2000/svg">
<path d="M20.5 37C29.6127 37 37 29.6127 37 20.5C37 11.3873 29.6127 4 20.5 4C11.3873 4 4 11.3873 4 20.5C4 29.6127 11.3873 37 20.5 37Z" fill="#7BD88A"/>
<path d="M20.5 34.5035C28.2339 34.5035 34.5035 28.2339 34.5035 20.5C34.5035 12.7661 28.2339 6.49658 20.5 6.49658C12.7661 6.49658 6.49658 12.7661 6.49658 20.5C6.49658 28.2339 12.7661 34.5035 20.5 34.5035Z" fill="#55BB67"/>
<path d="M27.8265 8.54834C29.2208 10.7253 30.0294 13.3139 30.0294 16.091C30.0294 23.825 23.7599 30.0945 16.026 30.0945C13.3403 30.0945 10.8312 29.3378 8.69946 28.0267C11.1882 31.9118 15.5432 34.4874 20.4994 34.4874C28.2334 34.4874 34.5029 28.2179 34.5029 20.4839C34.5029 15.4362 31.8317 11.0127 27.826 8.54834H27.8265Z" fill="#3FA251"/>
<path d="M8.94941 21.7817C8.94941 14.9546 14.4835 9.42047 21.3106 9.42047C25.3013 9.42047 28.8492 11.3116 31.1093 14.2463C28.975 10.5409 24.9739 8.0459 20.3903 8.0459C13.5632 8.0459 8.02905 13.58 8.02905 20.4071C8.02905 23.2436 8.98527 25.8565 10.5916 27.9426C9.54705 26.1289 8.9489 24.0252 8.9489 21.7817H8.94941Z" fill="#9CD1A5"/>
<path d="M13.1029 18.6258C13.0063 18.711 12.9579 18.8332 12.9579 18.9922V19.2905H13.9807V20.2966H12.9579V23.6808H11.4488V20.2966H10.8262V19.2905H11.4488V18.8644C11.4488 18.3758 11.6119 17.9908 11.9388 17.7091C12.2657 17.4279 12.6846 17.2871 13.1965 17.2871C13.5317 17.2871 13.8611 17.3469 14.1854 17.4664L13.9895 18.6175C13.7619 18.538 13.5914 18.498 13.4781 18.498C13.3248 18.498 13.1996 18.5406 13.1029 18.6258Z" fill="white"/>
<path d="M17.4464 23.221C17.0743 23.5733 16.5671 23.7495 15.9248 23.7495C15.0891 23.7495 14.3959 23.4283 13.8445 22.786L14.5606 21.7206C14.7706 21.9368 14.9868 22.1031 15.2087 22.2195C15.4306 22.3359 15.6322 22.3941 15.8141 22.3941C16.0074 22.3941 16.1592 22.3344 16.2704 22.2154C16.3811 22.0958 16.4367 21.9254 16.4367 21.704V18.9933H14.3907V17.7061H18.0051V21.7383C18.0051 22.3749 17.819 22.8691 17.4464 23.2215V23.221Z" fill="white"/>
<path d="M23.4606 18.2549C23.8811 18.6213 24.0915 19.1373 24.0915 19.802C24.0915 20.5067 23.8811 21.0539 23.4606 21.4432C23.0402 21.8324 22.4488 22.0273 21.6875 22.0273H20.6221V23.6809H19.062V17.7051H21.6875C22.4488 17.7051 23.0402 17.8885 23.4606 18.2549ZM22.348 20.5436C22.521 20.3846 22.6078 20.1544 22.6078 19.8529C22.6078 19.5515 22.521 19.34 22.348 19.1836C22.1744 19.0272 21.9286 18.9492 21.6105 18.9492H20.6216V20.7821H21.6105C21.9286 20.7821 22.1744 20.7026 22.348 20.5436Z" fill="white"/>
<path d="M30.1522 17.7051L27.9955 21.7716V23.6815H26.4354V21.8147L24.2361 17.7056H25.7962L27.2113 20.2718L28.5921 17.7056H30.1522V17.7051Z" fill="white"/>
</svg>