<svg width="36" height="36" viewBox="0 0 36 36" fill="none" xmlns="http://www.w3.org/2000/svg">
<path d="M18 36C27.9411 36 36 27.9411 36 18C36 8.05888 27.9411 0 18 0C8.05888 0 0 8.05888 0 18C0 27.9411 8.05888 36 18 36Z" fill="#D85A37"/>
<path d="M18.0001 33.2765C26.4371 33.2765 33.2766 26.437 33.2766 18C33.2766 9.56305 26.4371 2.72354 18.0001 2.72354C9.56314 2.72354 2.72363 9.56305 2.72363 18C2.72363 26.437 9.56314 33.2765 18.0001 33.2765Z" fill="#BB3E1A"/>
<path d="M25.9925 4.96182C27.5136 7.33669 28.3957 10.1606 28.3957 13.1902C28.3957 21.6273 21.5563 28.4667 13.1193 28.4667C10.1894 28.4667 7.45225 27.6413 5.12671 26.2109C7.84173 30.4493 12.5926 33.259 17.9994 33.259C26.4364 33.259 33.2759 26.4195 33.2759 17.9825C33.2759 12.4759 30.3619 7.6502 25.992 4.96182H25.9925Z" fill="#AA3D1E"/>
<path d="M5.3993 19.3982C5.3993 11.9505 11.4365 5.91324 18.8843 5.91324C23.2377 5.91324 27.1081 7.97629 29.5737 11.1777C27.2453 7.13554 22.8806 4.41371 17.8802 4.41371C10.4325 4.41371 4.39526 10.4509 4.39526 17.8987C4.39526 20.993 5.43841 23.8435 7.19079 26.1192C6.05126 24.1406 5.39873 21.8456 5.39873 19.3982H5.3993Z" fill="#D1745A"/>
<path d="M8.09817 16.2233C8.00803 16.3027 7.96324 16.4166 7.96324 16.5652V16.8435H8.91738V17.7818H7.96324V20.9379H6.55612V17.7818H5.97559V16.8435H6.55612V16.4461C6.55612 15.9903 6.70863 15.6314 7.01307 15.3689C7.31807 15.1065 7.70869 14.9755 8.18548 14.9755C8.49842 14.9755 8.8057 15.0311 9.10787 15.1422L8.92475 16.2154C8.71272 16.1411 8.55398 16.1043 8.44796 16.1043C8.3051 16.1043 8.18831 16.1439 8.09817 16.2233Z" fill="white"/>
<path d="M9.61621 15.3643H14.3943V16.565H12.7247V20.9377H11.2699V16.565H9.61621V15.3643Z" fill="white"/>
<path d="M17.7931 16.6129C17.4563 16.5018 17.174 16.4462 16.9461 16.4462C16.7658 16.4462 16.6241 16.4791 16.5209 16.5454C16.4177 16.6118 16.3661 16.7081 16.3661 16.8357C16.3661 16.9633 16.4109 17.0596 16.5011 17.1418C16.5912 17.224 16.7023 17.2904 16.835 17.3408C16.9676 17.3913 17.1638 17.4559 17.4234 17.5359C17.8101 17.647 18.1298 17.7587 18.3816 17.8698C18.6333 17.9809 18.8493 18.1521 19.0296 18.3828C19.2098 18.6136 19.3 18.9141 19.3 19.2854C19.3 19.6567 19.2019 19.9731 19.0057 20.2356C18.8096 20.4981 18.5409 20.6954 18.199 20.828C17.8571 20.9601 17.4767 21.027 17.0583 21.027C16.5974 21.027 16.1371 20.9459 15.679 20.7844C15.2204 20.6228 14.8241 20.4017 14.4907 20.1205L15.0554 18.9838C15.336 19.2332 15.6688 19.4368 16.0532 19.5961C16.4376 19.7548 16.7777 19.8348 17.0748 19.8348C17.2919 19.8348 17.4631 19.7951 17.5873 19.7157C17.712 19.6363 17.7744 19.5195 17.7744 19.3659C17.7744 19.2389 17.7279 19.1329 17.6355 19.0479C17.5425 18.9634 17.4263 18.8953 17.2857 18.8449C17.1451 18.7944 16.9478 18.7349 16.6932 18.6657C16.3117 18.5597 15.9965 18.4526 15.747 18.3437C15.4976 18.2349 15.2844 18.071 15.107 17.8511C14.9295 17.6311 14.8405 17.338 14.8405 16.9723C14.8405 16.6276 14.9318 16.3255 15.1149 16.0658C15.298 15.8062 15.5577 15.606 15.8939 15.4654C16.2306 15.3248 16.6212 15.2545 17.0663 15.2545C17.4688 15.2545 17.8668 15.3118 18.2591 15.4257C18.6514 15.5397 18.9955 15.6922 19.2926 15.8827L18.7438 17.0432C18.4468 16.868 18.1304 16.7251 17.7937 16.614L17.7931 16.6129Z" fill="white"/>
<path d="M19.96 15.3643H21.4147V19.6973H23.776V20.9377H19.96V15.3643Z" fill="white"/>
<path d="M28.4746 20.9377L28.0931 19.9518H25.6842L25.2947 20.9377H23.8003L26.1933 15.3643H27.6877L30.0252 20.9377H28.4746ZM26.1213 18.839H27.6639L26.9008 16.8513L26.1219 18.839H26.1213Z" fill="white"/>
</svg>