<svg width="40" height="40" viewBox="0 0 40 40" fill="none" xmlns="http://www.w3.org/2000/svg">
<path d="M20.5 37C29.6127 37 37 29.6127 37 20.5C37 11.3873 29.6127 4 20.5 4C11.3873 4 4 11.3873 4 20.5C4 29.6127 11.3873 37 20.5 37Z" fill="#464646"/>
<path d="M20.5001 34.5035C28.234 34.5035 34.5036 28.2339 34.5036 20.5C34.5036 12.7661 28.234 6.49658 20.5001 6.49658C12.7663 6.49658 6.4967 12.7661 6.4967 20.5C6.4967 28.2339 12.7663 34.5035 20.5001 34.5035Z" fill="#3D3D3D"/>
<path d="M27.8265 8.54834C29.2208 10.7253 30.0294 13.3139 30.0294 16.091C30.0294 23.825 23.7599 30.0945 16.026 30.0945C13.3403 30.0945 10.8312 29.3378 8.69946 28.0267C11.1882 31.9118 15.5432 34.4874 20.4994 34.4874C28.2334 34.4874 34.5029 28.2179 34.5029 20.4839C34.5029 15.4362 31.8317 11.0127 27.826 8.54834H27.8265Z" fill="#353535"/>
<path d="M8.94954 21.7812C8.94954 14.9541 14.4837 9.41998 21.3108 9.41998C25.3014 9.41998 28.8493 11.3111 31.1094 14.2458C28.9751 10.5404 24.974 8.04541 20.3904 8.04541C13.5633 8.04541 8.02917 13.5795 8.02917 20.4066C8.02917 23.2431 8.9854 25.8561 10.5917 27.9421C9.54717 26.1284 8.94902 24.0247 8.94902 21.7812H8.94954Z" fill="#4F4F4F"/>
<path d="M12.5078 18.6419C12.4112 18.7272 12.3628 18.8493 12.3628 19.0083V19.3066H13.3856V20.3127H12.3628V23.6969H10.8537V20.3127H10.2311V19.3066H10.8537V18.8805C10.8537 18.392 11.0168 18.0069 11.3437 17.7252C11.6706 17.4441 12.0895 17.3032 12.6014 17.3032C12.9366 17.3032 13.266 17.363 13.5903 17.4825L13.3944 18.6336C13.1668 18.5541 12.9963 18.5141 12.883 18.5141C12.7297 18.5141 12.6045 18.5567 12.5078 18.6419Z" fill="white"/>
<path d="M21.8085 17.7207H23.4113L21.3907 23.6966H19.788L18.6541 19.63L17.503 23.6966H15.9003L13.8885 17.7207H15.5682L16.7447 22.0855L17.9213 17.7207H19.4471L20.6408 22.0855L21.8085 17.7207Z" fill="white"/>
<path d="M23.4542 17.7207H28.5778V19.008H26.7875V23.6966H25.2274V19.008H23.4542V17.7207Z" fill="white"/>
<path d="M29.2085 17.7207H30.7686V23.6966H29.2085V17.7207Z" fill="white"/>
</svg>