<svg width="52" height="52" viewBox="0 0 52 52" fill="none" xmlns="http://www.w3.org/2000/svg">
<path d="M3.98334 13.2887L26 0.57735L48.0167 13.2887V38.7113L26 51.4226L3.98334 38.7113V13.2887Z" fill="#609DBB" fill-opacity="0.1" stroke="#609DBB"/>
<path d="M15.1528 31C14.8741 31 14.6175 30.9303 14.3828 30.791C14.1555 30.6517 13.9721 30.4683 13.8328 30.241C13.6935 30.0063 13.6238 29.7497 13.6238 29.471V24.609C13.6238 24.3303 13.6935 24.0773 13.8328 23.85C13.9721 23.6153 14.1555 23.4283 14.3828 23.289C14.6175 23.1497 14.8741 23.08 15.1528 23.08H20.0038C20.2825 23.08 20.5391 23.1497 20.7738 23.289C21.0085 23.4283 21.1955 23.6153 21.3348 23.85C21.4741 24.0773 21.5438 24.3303 21.5438 24.609V25.225H20.0808V24.675C20.0808 24.6383 20.0661 24.609 20.0368 24.587C20.0075 24.5577 19.9745 24.543 19.9378 24.543H15.2078C15.1711 24.543 15.1381 24.5577 15.1088 24.587C15.0868 24.609 15.0758 24.6383 15.0758 24.675V29.405C15.0758 29.4417 15.0868 29.4747 15.1088 29.504C15.1381 29.526 15.1711 29.537 15.2078 29.537H19.9378C19.9745 29.537 20.0075 29.526 20.0368 29.504C20.0661 29.4747 20.0808 29.4417 20.0808 29.405V27.975H18.2878V26.512H21.5438V29.471C21.5438 29.7497 21.4741 30.0063 21.3348 30.241C21.1955 30.4683 21.0085 30.6517 20.7738 30.791C20.5391 30.9303 20.2825 31 20.0038 31H15.1528ZM22.7877 31V23.08H28.8597C29.1383 23.08 29.3913 23.1497 29.6187 23.289C29.8533 23.4283 30.0403 23.6153 30.1797 23.85C30.319 24.0773 30.3887 24.3303 30.3887 24.609V26.16C30.3887 26.2553 30.3813 26.347 30.3667 26.435C30.352 26.523 30.3263 26.6073 30.2897 26.688C30.4143 26.8567 30.5133 27.0327 30.5867 27.216C30.6673 27.3993 30.7077 27.5827 30.7077 27.766V29.471C30.7077 29.7497 30.638 30.0063 30.4987 30.241C30.3593 30.4683 30.1723 30.6517 29.9377 30.791C29.703 30.9303 29.4463 31 29.1677 31H22.7877ZM24.3717 29.537H29.1017C29.1383 29.537 29.1713 29.526 29.2007 29.504C29.23 29.4747 29.2447 29.4417 29.2447 29.405V27.832C29.2447 27.7953 29.23 27.766 29.2007 27.744C29.1713 27.7147 29.1383 27.7 29.1017 27.7H24.3717C24.335 27.7 24.302 27.7147 24.2727 27.744C24.2507 27.766 24.2397 27.7953 24.2397 27.832V29.405C24.2397 29.4417 24.2507 29.4747 24.2727 29.504C24.302 29.526 24.335 29.537 24.3717 29.537ZM24.3717 26.237H28.7937C28.8303 26.237 28.8597 26.226 28.8817 26.204C28.9037 26.1747 28.9147 26.1417 28.9147 26.105V24.675C28.9147 24.6383 28.9037 24.609 28.8817 24.587C28.8597 24.5577 28.8303 24.543 28.7937 24.543H24.3717C24.335 24.543 24.302 24.5577 24.2727 24.587C24.2507 24.609 24.2397 24.6383 24.2397 24.675V26.105C24.2397 26.1417 24.2507 26.1747 24.2727 26.204C24.302 26.226 24.335 26.237 24.3717 26.237ZM31.907 31V23.091H38.287C38.5657 23.091 38.8223 23.1607 39.057 23.3C39.2917 23.4393 39.4787 23.6263 39.618 23.861C39.7573 24.0883 39.827 24.3413 39.827 24.62V26.754C39.827 27.0327 39.7573 27.2893 39.618 27.524C39.4787 27.7587 39.2917 27.9457 39.057 28.085C38.8223 28.217 38.5657 28.283 38.287 28.283L33.359 28.294V31H31.907ZM33.491 26.82H38.221C38.2577 26.82 38.2907 26.809 38.32 26.787C38.3493 26.765 38.364 26.7357 38.364 26.699V24.675C38.364 24.6383 38.3493 24.609 38.32 24.587C38.2907 24.5577 38.2577 24.543 38.221 24.543H33.491C33.4543 24.543 33.4213 24.5577 33.392 24.587C33.37 24.609 33.359 24.6383 33.359 24.675V26.699C33.359 26.7357 33.37 26.765 33.392 26.787C33.4213 26.809 33.4543 26.82 33.491 26.82Z" fill="#FCFCFD"/>
</svg>
