<svg width="52" height="52" viewBox="0 0 52 52" fill="none" xmlns="http://www.w3.org/2000/svg">
<path d="M3.98334 13.2887L26 0.57735L48.0167 13.2887V38.7113L26 51.4226L3.98334 38.7113V13.2887Z" fill="#FFD715" fill-opacity="0.1" stroke="#FFD715"/>
<path d="M10.1518 31C9.87317 31 9.6165 30.9303 9.38184 30.791C9.1545 30.6517 8.97117 30.4683 8.83184 30.241C8.6925 30.0063 8.62284 29.7497 8.62284 29.471V24.609C8.62284 24.3303 8.6925 24.0773 8.83184 23.85C8.97117 23.6153 9.1545 23.4283 9.38184 23.289C9.6165 23.1497 9.87317 23.08 10.1518 23.08H15.0028C15.2815 23.08 15.5382 23.1497 15.7728 23.289C16.0075 23.4283 16.1945 23.6153 16.3338 23.85C16.4732 24.0773 16.5428 24.3303 16.5428 24.609V25.225H15.0798V24.675C15.0798 24.6383 15.0652 24.609 15.0358 24.587C15.0065 24.5577 14.9735 24.543 14.9368 24.543H10.2068C10.1702 24.543 10.1372 24.5577 10.1078 24.587C10.0858 24.609 10.0748 24.6383 10.0748 24.675V29.405C10.0748 29.4417 10.0858 29.4747 10.1078 29.504C10.1372 29.526 10.1702 29.537 10.2068 29.537H14.9368C14.9735 29.537 15.0065 29.526 15.0358 29.504C15.0652 29.4747 15.0798 29.4417 15.0798 29.405V27.975H13.2868V26.512H16.5428V29.471C16.5428 29.7497 16.4732 30.0063 16.3338 30.241C16.1945 30.4683 16.0075 30.6517 15.7728 30.791C15.5382 30.9303 15.2815 31 15.0028 31H10.1518ZM19.2607 31C18.982 31 18.7254 30.9303 18.4907 30.791C18.2634 30.6517 18.08 30.4683 17.9407 30.241C17.8014 30.0063 17.7317 29.7497 17.7317 29.471V24.609C17.7317 24.3303 17.8014 24.0773 17.9407 23.85C18.08 23.6153 18.2634 23.4283 18.4907 23.289C18.7254 23.1497 18.982 23.08 19.2607 23.08H24.1227C24.4014 23.08 24.6544 23.1497 24.8817 23.289C25.1164 23.4283 25.3034 23.6153 25.4427 23.85C25.582 24.0773 25.6517 24.3303 25.6517 24.609V29.471C25.6517 29.7497 25.582 30.0063 25.4427 30.241C25.3034 30.4683 25.1164 30.6517 24.8817 30.791C24.6544 30.9303 24.4014 31 24.1227 31H19.2607ZM19.3157 29.537H24.0457C24.0824 29.537 24.1154 29.526 24.1447 29.504C24.174 29.4747 24.1887 29.4417 24.1887 29.405V24.675C24.1887 24.6383 24.174 24.609 24.1447 24.587C24.1154 24.5577 24.0824 24.543 24.0457 24.543H19.3157C19.279 24.543 19.246 24.5577 19.2167 24.587C19.1947 24.609 19.1837 24.6383 19.1837 24.675V29.405C19.1837 29.4417 19.1947 29.4747 19.2167 29.504C19.246 29.526 19.279 29.537 19.3157 29.537ZM26.8741 31V23.069H28.3261V29.537H34.7941V31H26.8741ZM35.4573 31V23.08H41.8373C42.116 23.08 42.3727 23.1497 42.6073 23.289C42.842 23.4283 43.029 23.6153 43.1683 23.85C43.3077 24.0773 43.3773 24.3303 43.3773 24.609V29.471C43.3773 29.7497 43.3077 30.0063 43.1683 30.241C43.029 30.4683 42.842 30.6517 42.6073 30.791C42.3727 30.9303 42.116 31 41.8373 31H35.4573ZM37.0303 29.537H41.7713C41.808 29.537 41.841 29.526 41.8703 29.504C41.8997 29.4747 41.9143 29.4417 41.9143 29.405V24.675C41.9143 24.6383 41.8997 24.609 41.8703 24.587C41.841 24.5577 41.808 24.543 41.7713 24.543H37.0303C36.9937 24.543 36.9607 24.5577 36.9313 24.587C36.9093 24.609 36.8983 24.6383 36.8983 24.675V29.405C36.8983 29.4417 36.9093 29.4747 36.9313 29.504C36.9607 29.526 36.9937 29.537 37.0303 29.537Z" fill="#FCFCFD"/>
</svg>
