<svg width="52" height="52" viewBox="0 0 52 52" fill="none" xmlns="http://www.w3.org/2000/svg">
<path d="M3.98334 13.2887L26 0.57735L48.0167 13.2887V38.7113L26 51.4226L3.98334 38.7113V13.2887Z" fill="#7BD88A" fill-opacity="0.1" stroke="#7BD88A"/>
<path d="M14.9998 31C14.7211 31 14.4644 30.9303 14.2298 30.791C14.0024 30.6517 13.8191 30.4683 13.6798 30.241C13.5404 30.0063 13.4708 29.7497 13.4708 29.471V28.569H14.9228V29.405C14.9228 29.4417 14.9338 29.4747 14.9558 29.504C14.9851 29.526 15.0181 29.537 15.0548 29.537H19.7848C19.8214 29.537 19.8544 29.526 19.8838 29.504C19.9131 29.4747 19.9278 29.4417 19.9278 29.405V23.08H21.3908V29.471C21.3908 29.7497 21.3211 30.0063 21.1818 30.241C21.0424 30.4683 20.8554 30.6517 20.6208 30.791C20.3934 30.9303 20.1404 31 19.8618 31H14.9998ZM22.6258 31V23.091H29.0058C29.2844 23.091 29.5411 23.1607 29.7758 23.3C30.0104 23.4393 30.1974 23.6263 30.3368 23.861C30.4761 24.0883 30.5458 24.3413 30.5458 24.62V26.754C30.5458 27.0327 30.4761 27.2893 30.3368 27.524C30.1974 27.7587 30.0104 27.9457 29.7758 28.085C29.5411 28.217 29.2844 28.283 29.0058 28.283L24.0778 28.294V31H22.6258ZM24.2098 26.82H28.9398C28.9764 26.82 29.0094 26.809 29.0388 26.787C29.0681 26.765 29.0828 26.7357 29.0828 26.699V24.675C29.0828 24.6383 29.0681 24.609 29.0388 24.587C29.0094 24.5577 28.9764 24.543 28.9398 24.543H24.2098C24.1731 24.543 24.1401 24.5577 24.1108 24.587C24.0888 24.609 24.0778 24.6383 24.0778 24.675V26.699C24.0778 26.7357 24.0888 26.765 24.1108 26.787C24.1401 26.809 24.1731 26.82 24.2098 26.82ZM34.4069 31V28.03L30.7549 23.08H32.4709L35.1439 26.435L37.7839 23.08H39.5329L35.8699 28.041V31H34.4069Z" fill="#FCFCFD"/>
</svg>
