<svg width="52" height="52" viewBox="0 0 52 52" fill="none" xmlns="http://www.w3.org/2000/svg">
<path d="M3.98334 13.2887L26 0.57735L48.0167 13.2887V38.7113L26 51.4226L3.98334 38.7113V13.2887Z" fill="#24FF00" fill-opacity="0.1" stroke="#24FF00"/>
<path d="M7.83914 31V23.08H9.43414L14.2961 28.866V23.08H15.7591V31H14.1641L9.29114 25.203V31H7.83914ZM21.3475 31L16.7605 23.08H18.4545L21.9965 29.24L25.5495 23.08H27.2325L22.6455 31H21.3475ZM28.0457 31V23.08H34.4257C34.7044 23.08 34.961 23.1497 35.1957 23.289C35.4304 23.4283 35.6174 23.6153 35.7567 23.85C35.896 24.0773 35.9657 24.3303 35.9657 24.609V29.471C35.9657 29.7497 35.896 30.0063 35.7567 30.241C35.6174 30.4683 35.4304 30.6517 35.1957 30.791C34.961 30.9303 34.7044 31 34.4257 31H28.0457ZM29.6187 29.537H34.3597C34.3964 29.537 34.4294 29.526 34.4587 29.504C34.488 29.4747 34.5027 29.4417 34.5027 29.405V24.675C34.5027 24.6383 34.488 24.609 34.4587 24.587C34.4294 24.5577 34.3964 24.543 34.3597 24.543H29.6187C29.582 24.543 29.549 24.5577 29.5197 24.587C29.4977 24.609 29.4867 24.6383 29.4867 24.675V29.405C29.4867 29.4417 29.4977 29.4747 29.5197 29.504C29.549 29.526 29.582 29.537 29.6187 29.537ZM37.2195 31V24.609C37.2195 24.3303 37.2892 24.0773 37.4285 23.85C37.5679 23.6153 37.7512 23.4283 37.9785 23.289C38.2132 23.1497 38.4699 23.08 38.7485 23.08H43.5995C43.8782 23.08 44.1349 23.1497 44.3695 23.289C44.6042 23.4283 44.7912 23.6153 44.9305 23.85C45.0699 24.0773 45.1395 24.3303 45.1395 24.609V31H43.6765V28.338H38.6715V31H37.2195ZM38.6715 26.886H43.6765V24.675C43.6765 24.6383 43.6619 24.609 43.6325 24.587C43.6032 24.5577 43.5702 24.543 43.5335 24.543H38.8035C38.7669 24.543 38.7339 24.5577 38.7045 24.587C38.6825 24.609 38.6715 24.6383 38.6715 24.675V26.886Z" fill="#FCFCFD"/>
</svg>
