<svg width="52" height="52" viewBox="0 0 52 52" fill="none" xmlns="http://www.w3.org/2000/svg">
<path d="M3.98334 13.2887L26 0.57735L48.0167 13.2887V38.7113L26 51.4226L3.98334 38.7113V13.2887Z" fill="#CECECE" fill-opacity="0.1" stroke="#CECECE"/>
<path d="M10.3874 31C10.1087 31 9.85206 30.9303 9.61739 30.791C9.39006 30.6517 9.20672 30.4683 9.06739 30.241C8.92806 30.0063 8.85839 29.7497 8.85839 29.471V28.866H10.3104V29.405C10.3104 29.4417 10.3214 29.4747 10.3434 29.504C10.3727 29.526 10.4057 29.537 10.4424 29.537H15.1834C15.2201 29.537 15.2494 29.526 15.2714 29.504C15.3007 29.4747 15.3154 29.4417 15.3154 29.405V27.898C15.3154 27.8613 15.3007 27.832 15.2714 27.81C15.2494 27.788 15.2201 27.777 15.1834 27.777H10.3874C10.1087 27.777 9.85206 27.7073 9.61739 27.568C9.39006 27.4287 9.20672 27.2453 9.06739 27.018C8.92806 26.7833 8.85839 26.523 8.85839 26.237V24.609C8.85839 24.3303 8.92806 24.0773 9.06739 23.85C9.20672 23.6153 9.39006 23.4283 9.61739 23.289C9.85206 23.1497 10.1087 23.08 10.3874 23.08H15.2494C15.5281 23.08 15.7811 23.1497 16.0084 23.289C16.2431 23.4283 16.4301 23.6153 16.5694 23.85C16.7087 24.0773 16.7784 24.3303 16.7784 24.609V25.214H15.3154V24.675C15.3154 24.6383 15.3007 24.609 15.2714 24.587C15.2494 24.5577 15.2201 24.543 15.1834 24.543H10.4424C10.4057 24.543 10.3727 24.5577 10.3434 24.587C10.3214 24.609 10.3104 24.6383 10.3104 24.675V26.182C10.3104 26.2187 10.3214 26.248 10.3434 26.27C10.3727 26.292 10.4057 26.303 10.4424 26.303H15.2494C15.5281 26.303 15.7811 26.3727 16.0084 26.512C16.2431 26.6513 16.4301 26.8383 16.5694 27.073C16.7087 27.3003 16.7784 27.557 16.7784 27.843V29.471C16.7784 29.7497 16.7087 30.0063 16.5694 30.241C16.4301 30.4683 16.2431 30.6517 16.0084 30.791C15.7811 30.9303 15.5281 31 15.2494 31H10.3874ZM17.9903 31V23.069H19.4423V29.537H25.9103V31H17.9903ZM28.5872 31L24.0002 23.08H25.6942L29.2362 29.24L32.7892 23.08H34.4722L29.8852 31H28.5872ZM41.5775 31L39.1905 28.151H41.0935L43.1615 30.593V31H41.5775ZM35.2635 31V23.091H41.6435C41.9221 23.091 42.1788 23.1607 42.4135 23.3C42.6481 23.4393 42.8351 23.6263 42.9745 23.861C43.1138 24.0883 43.1835 24.3413 43.1835 24.62V26.754C43.1835 27.0327 43.1138 27.2893 42.9745 27.524C42.8351 27.7587 42.6481 27.9457 42.4135 28.085C42.1788 28.217 41.9221 28.283 41.6435 28.283L36.7155 28.294V31H35.2635ZM36.8475 26.82H41.5775C41.6141 26.82 41.6471 26.809 41.6765 26.787C41.7058 26.765 41.7205 26.7357 41.7205 26.699V24.675C41.7205 24.6383 41.7058 24.609 41.6765 24.587C41.6471 24.5577 41.6141 24.543 41.5775 24.543H36.8475C36.8108 24.543 36.7778 24.5577 36.7485 24.587C36.7265 24.609 36.7155 24.6383 36.7155 24.675V26.699C36.7155 26.7357 36.7265 26.765 36.7485 26.787C36.7778 26.809 36.8108 26.82 36.8475 26.82Z" fill="#FCFCFD"/>
</svg>
