<svg width="52" height="52" viewBox="0 0 52 52" fill="none" xmlns="http://www.w3.org/2000/svg">
<path d="M3.98334 13.2887L26 0.57735L48.0167 13.2887V38.7113L26 51.4226L3.98334 38.7113V13.2887Z" fill="#D85A37" fill-opacity="0.1" stroke="#D85A37"/>
<path d="M11.8529 31V24.543H8.61893V23.08H16.5389V24.543H13.3159V31H11.8529ZM18.8576 31C18.5789 31 18.3223 30.9303 18.0876 30.791C17.8603 30.6517 17.6769 30.4683 17.5376 30.241C17.3983 30.0063 17.3286 29.7497 17.3286 29.471V28.866H18.7806V29.405C18.7806 29.4417 18.7916 29.4747 18.8136 29.504C18.8429 29.526 18.8759 29.537 18.9126 29.537H23.6536C23.6903 29.537 23.7196 29.526 23.7416 29.504C23.7709 29.4747 23.7856 29.4417 23.7856 29.405V27.898C23.7856 27.8613 23.7709 27.832 23.7416 27.81C23.7196 27.788 23.6903 27.777 23.6536 27.777H18.8576C18.5789 27.777 18.3223 27.7073 18.0876 27.568C17.8603 27.4287 17.6769 27.2453 17.5376 27.018C17.3983 26.7833 17.3286 26.523 17.3286 26.237V24.609C17.3286 24.3303 17.3983 24.0773 17.5376 23.85C17.6769 23.6153 17.8603 23.4283 18.0876 23.289C18.3223 23.1497 18.5789 23.08 18.8576 23.08H23.7196C23.9983 23.08 24.2513 23.1497 24.4786 23.289C24.7133 23.4283 24.9003 23.6153 25.0396 23.85C25.1789 24.0773 25.2486 24.3303 25.2486 24.609V25.214H23.7856V24.675C23.7856 24.6383 23.7709 24.609 23.7416 24.587C23.7196 24.5577 23.6903 24.543 23.6536 24.543H18.9126C18.8759 24.543 18.8429 24.5577 18.8136 24.587C18.7916 24.609 18.7806 24.6383 18.7806 24.675V26.182C18.7806 26.2187 18.7916 26.248 18.8136 26.27C18.8429 26.292 18.8759 26.303 18.9126 26.303H23.7196C23.9983 26.303 24.2513 26.3727 24.4786 26.512C24.7133 26.6513 24.9003 26.8383 25.0396 27.073C25.1789 27.3003 25.2486 27.557 25.2486 27.843V29.471C25.2486 29.7497 25.1789 30.0063 25.0396 30.241C24.9003 30.4683 24.7133 30.6517 24.4786 30.791C24.2513 30.9303 23.9983 31 23.7196 31H18.8576ZM26.4605 31V23.069H27.9125V29.537H34.3805V31H26.4605ZM35.0438 31V24.609C35.0438 24.3303 35.1134 24.0773 35.2528 23.85C35.3921 23.6153 35.5754 23.4283 35.8028 23.289C36.0374 23.1497 36.2941 23.08 36.5728 23.08H41.4238C41.7024 23.08 41.9591 23.1497 42.1938 23.289C42.4284 23.4283 42.6154 23.6153 42.7548 23.85C42.8941 24.0773 42.9638 24.3303 42.9638 24.609V31H41.5008V28.338H36.4958V31H35.0438ZM36.4958 26.886H41.5008V24.675C41.5008 24.6383 41.4861 24.609 41.4568 24.587C41.4274 24.5577 41.3944 24.543 41.3578 24.543H36.6278C36.5911 24.543 36.5581 24.5577 36.5288 24.587C36.5068 24.609 36.4958 24.6383 36.4958 24.675V26.886Z" fill="#FCFCFD"/>
</svg>
