<svg width="52" height="52" viewBox="0 0 52 52" fill="none" xmlns="http://www.w3.org/2000/svg">
<path d="M3.98334 13.2887L26 0.57735L48.0167 13.2887V38.7113L26 51.4226L3.98334 38.7113V13.2887Z" fill="#93FF00" fill-opacity="0.1" stroke="#93FF00"/>
<path d="M21.5154 14H14.4827C14.2168 14 14 14.2168 14 14.4827V21.9981L22 29.9981V14.4827C22 14.2149 21.7832 14 21.5173 14H21.5154Z" fill="white"/>
<path d="M38 22V14.4827C38 14.2149 37.7832 14 37.5173 14H30.4827C30.2149 14 30 14.2168 30 14.4827V29.8303C30 29.9246 29.9246 30 29.8303 30H14C14 34.4176 17.5805 38 22 38L29.7096 30.2904C29.8171 30.1829 30 30.2583 30 30.411V37.5173C30 37.7851 30.2168 38 30.4827 38H37.5173C37.7851 38 38 37.7832 38 37.5173V30.0019H30.411C30.2583 30.0019 30.1829 29.819 30.2904 29.7115L38 22.0019V22Z" fill="white"/>
</svg>
